<mxfile host="Electron" agent="Mozilla/5.0 (Windows NT 10.0; Win64; x64) AppleWebKit/537.36 (KHTML, like Gecko) draw.io/26.2.15 Chrome/134.0.6998.205 Electron/35.2.1 Safari/537.36" version="26.2.15">
  <diagram id="C5RBs43oDa-KdzZeNtuy" name="Page-1">
    <mxGraphModel dx="1281" dy="634" grid="1" gridSize="10" guides="1" tooltips="1" connect="1" arrows="1" fold="1" page="1" pageScale="1" pageWidth="827" pageHeight="1169" math="0" shadow="0">
      <root>
        <mxCell id="WIyWlLk6GJQsqaUBKTNV-0" />
        <mxCell id="WIyWlLk6GJQsqaUBKTNV-1" parent="WIyWlLk6GJQsqaUBKTNV-0" />
        <mxCell id="TD4gpTgBBpbdvJ58NCWK-2" style="edgeStyle=orthogonalEdgeStyle;rounded=0;orthogonalLoop=1;jettySize=auto;html=1;entryX=0.5;entryY=1;entryDx=0;entryDy=0;" edge="1" parent="WIyWlLk6GJQsqaUBKTNV-1" source="TD4gpTgBBpbdvJ58NCWK-0" target="TD4gpTgBBpbdvJ58NCWK-1">
          <mxGeometry relative="1" as="geometry" />
        </mxCell>
        <mxCell id="TD4gpTgBBpbdvJ58NCWK-88" style="edgeStyle=orthogonalEdgeStyle;rounded=0;orthogonalLoop=1;jettySize=auto;html=1;entryX=0.5;entryY=0;entryDx=0;entryDy=0;" edge="1" parent="WIyWlLk6GJQsqaUBKTNV-1" source="TD4gpTgBBpbdvJ58NCWK-0" target="TD4gpTgBBpbdvJ58NCWK-87">
          <mxGeometry relative="1" as="geometry" />
        </mxCell>
        <mxCell id="TD4gpTgBBpbdvJ58NCWK-0" value="Proxmox" style="rounded=0;whiteSpace=wrap;html=1;" vertex="1" parent="WIyWlLk6GJQsqaUBKTNV-1">
          <mxGeometry x="364" y="664" width="120" height="60" as="geometry" />
        </mxCell>
        <mxCell id="TD4gpTgBBpbdvJ58NCWK-5" style="edgeStyle=orthogonalEdgeStyle;rounded=0;orthogonalLoop=1;jettySize=auto;html=1;entryX=0.5;entryY=1;entryDx=0;entryDy=0;" edge="1" parent="WIyWlLk6GJQsqaUBKTNV-1" source="TD4gpTgBBpbdvJ58NCWK-1" target="TD4gpTgBBpbdvJ58NCWK-4">
          <mxGeometry relative="1" as="geometry" />
        </mxCell>
        <mxCell id="TD4gpTgBBpbdvJ58NCWK-1" value="Zabbix" style="rounded=1;whiteSpace=wrap;html=1;" vertex="1" parent="WIyWlLk6GJQsqaUBKTNV-1">
          <mxGeometry x="364" y="570" width="120" height="60" as="geometry" />
        </mxCell>
        <mxCell id="TD4gpTgBBpbdvJ58NCWK-7" style="edgeStyle=orthogonalEdgeStyle;rounded=0;orthogonalLoop=1;jettySize=auto;html=1;" edge="1" parent="WIyWlLk6GJQsqaUBKTNV-1" source="TD4gpTgBBpbdvJ58NCWK-4" target="TD4gpTgBBpbdvJ58NCWK-6">
          <mxGeometry relative="1" as="geometry" />
        </mxCell>
        <mxCell id="TD4gpTgBBpbdvJ58NCWK-4" value="Agents Zabbix" style="ellipse;whiteSpace=wrap;html=1;aspect=fixed;" vertex="1" parent="WIyWlLk6GJQsqaUBKTNV-1">
          <mxGeometry x="384" y="460" width="80" height="80" as="geometry" />
        </mxCell>
        <mxCell id="TD4gpTgBBpbdvJ58NCWK-21" style="edgeStyle=orthogonalEdgeStyle;rounded=0;orthogonalLoop=1;jettySize=auto;html=1;entryX=0.5;entryY=1;entryDx=0;entryDy=0;" edge="1" parent="WIyWlLk6GJQsqaUBKTNV-1" source="TD4gpTgBBpbdvJ58NCWK-6" target="TD4gpTgBBpbdvJ58NCWK-13">
          <mxGeometry relative="1" as="geometry" />
        </mxCell>
        <mxCell id="TD4gpTgBBpbdvJ58NCWK-70" style="edgeStyle=orthogonalEdgeStyle;rounded=0;orthogonalLoop=1;jettySize=auto;html=1;entryX=0.5;entryY=1;entryDx=0;entryDy=0;" edge="1" parent="WIyWlLk6GJQsqaUBKTNV-1" source="TD4gpTgBBpbdvJ58NCWK-6" target="TD4gpTgBBpbdvJ58NCWK-11">
          <mxGeometry relative="1" as="geometry" />
        </mxCell>
        <mxCell id="TD4gpTgBBpbdvJ58NCWK-6" value="Notificacions" style="whiteSpace=wrap;html=1;aspect=fixed;" vertex="1" parent="WIyWlLk6GJQsqaUBKTNV-1">
          <mxGeometry x="384" y="350" width="80" height="80" as="geometry" />
        </mxCell>
        <mxCell id="TD4gpTgBBpbdvJ58NCWK-42" style="edgeStyle=orthogonalEdgeStyle;rounded=0;orthogonalLoop=1;jettySize=auto;html=1;entryX=1;entryY=0.5;entryDx=0;entryDy=0;" edge="1" parent="WIyWlLk6GJQsqaUBKTNV-1" source="TD4gpTgBBpbdvJ58NCWK-11" target="TD4gpTgBBpbdvJ58NCWK-18">
          <mxGeometry relative="1" as="geometry" />
        </mxCell>
        <mxCell id="TD4gpTgBBpbdvJ58NCWK-68" style="edgeStyle=orthogonalEdgeStyle;rounded=0;orthogonalLoop=1;jettySize=auto;html=1;entryX=0.5;entryY=0;entryDx=0;entryDy=0;" edge="1" parent="WIyWlLk6GJQsqaUBKTNV-1" source="TD4gpTgBBpbdvJ58NCWK-11" target="TD4gpTgBBpbdvJ58NCWK-63">
          <mxGeometry relative="1" as="geometry" />
        </mxCell>
        <mxCell id="TD4gpTgBBpbdvJ58NCWK-11" value="SuperAdmin" style="shape=parallelogram;perimeter=parallelogramPerimeter;whiteSpace=wrap;html=1;fixedSize=1;" vertex="1" parent="WIyWlLk6GJQsqaUBKTNV-1">
          <mxGeometry x="254" y="315" width="120" height="60" as="geometry" />
        </mxCell>
        <mxCell id="TD4gpTgBBpbdvJ58NCWK-47" style="edgeStyle=orthogonalEdgeStyle;rounded=0;orthogonalLoop=1;jettySize=auto;html=1;entryX=0;entryY=0.5;entryDx=0;entryDy=0;" edge="1" parent="WIyWlLk6GJQsqaUBKTNV-1" source="TD4gpTgBBpbdvJ58NCWK-13" target="TD4gpTgBBpbdvJ58NCWK-46">
          <mxGeometry relative="1" as="geometry" />
        </mxCell>
        <mxCell id="TD4gpTgBBpbdvJ58NCWK-66" style="edgeStyle=orthogonalEdgeStyle;rounded=0;orthogonalLoop=1;jettySize=auto;html=1;entryX=0.5;entryY=0;entryDx=0;entryDy=0;" edge="1" parent="WIyWlLk6GJQsqaUBKTNV-1" source="TD4gpTgBBpbdvJ58NCWK-13" target="TD4gpTgBBpbdvJ58NCWK-63">
          <mxGeometry relative="1" as="geometry" />
        </mxCell>
        <mxCell id="TD4gpTgBBpbdvJ58NCWK-13" value="Admin&lt;div&gt;&amp;nbsp;UnaiButanero&lt;/div&gt;" style="shape=parallelogram;perimeter=parallelogramPerimeter;whiteSpace=wrap;html=1;fixedSize=1;" vertex="1" parent="WIyWlLk6GJQsqaUBKTNV-1">
          <mxGeometry x="474" y="310" width="120" height="60" as="geometry" />
        </mxCell>
        <mxCell id="TD4gpTgBBpbdvJ58NCWK-43" style="edgeStyle=orthogonalEdgeStyle;rounded=0;orthogonalLoop=1;jettySize=auto;html=1;entryX=1;entryY=0.5;entryDx=0;entryDy=0;" edge="1" parent="WIyWlLk6GJQsqaUBKTNV-1" source="TD4gpTgBBpbdvJ58NCWK-18" target="TD4gpTgBBpbdvJ58NCWK-35">
          <mxGeometry relative="1" as="geometry" />
        </mxCell>
        <mxCell id="TD4gpTgBBpbdvJ58NCWK-44" style="edgeStyle=orthogonalEdgeStyle;rounded=0;orthogonalLoop=1;jettySize=auto;html=1;entryX=1;entryY=0.5;entryDx=0;entryDy=0;" edge="1" parent="WIyWlLk6GJQsqaUBKTNV-1" source="TD4gpTgBBpbdvJ58NCWK-18" target="TD4gpTgBBpbdvJ58NCWK-34">
          <mxGeometry relative="1" as="geometry" />
        </mxCell>
        <mxCell id="TD4gpTgBBpbdvJ58NCWK-45" style="edgeStyle=orthogonalEdgeStyle;rounded=0;orthogonalLoop=1;jettySize=auto;html=1;entryX=1;entryY=0.5;entryDx=0;entryDy=0;" edge="1" parent="WIyWlLk6GJQsqaUBKTNV-1" source="TD4gpTgBBpbdvJ58NCWK-18" target="TD4gpTgBBpbdvJ58NCWK-36">
          <mxGeometry relative="1" as="geometry" />
        </mxCell>
        <mxCell id="TD4gpTgBBpbdvJ58NCWK-18" value="Tipus&lt;div&gt;Notificacio&lt;/div&gt;" style="ellipse;whiteSpace=wrap;html=1;" vertex="1" parent="WIyWlLk6GJQsqaUBKTNV-1">
          <mxGeometry x="124" y="305" width="100" height="70" as="geometry" />
        </mxCell>
        <mxCell id="TD4gpTgBBpbdvJ58NCWK-22" value="No&lt;br&gt;Clasificada" style="rhombus;whiteSpace=wrap;html=1;" vertex="1" parent="WIyWlLk6GJQsqaUBKTNV-1">
          <mxGeometry x="744" y="140" width="80" height="80" as="geometry" />
        </mxCell>
        <mxCell id="TD4gpTgBBpbdvJ58NCWK-24" value="Promedio" style="rhombus;whiteSpace=wrap;html=1;" vertex="1" parent="WIyWlLk6GJQsqaUBKTNV-1">
          <mxGeometry x="744" y="380" width="80" height="80" as="geometry" />
        </mxCell>
        <mxCell id="TD4gpTgBBpbdvJ58NCWK-25" value="Critica" style="rhombus;whiteSpace=wrap;html=1;" vertex="1" parent="WIyWlLk6GJQsqaUBKTNV-1">
          <mxGeometry x="744" y="540" width="80" height="80" as="geometry" />
        </mxCell>
        <mxCell id="TD4gpTgBBpbdvJ58NCWK-26" value="Advertencia" style="rhombus;whiteSpace=wrap;html=1;" vertex="1" parent="WIyWlLk6GJQsqaUBKTNV-1">
          <mxGeometry x="744" y="300" width="80" height="80" as="geometry" />
        </mxCell>
        <mxCell id="TD4gpTgBBpbdvJ58NCWK-27" value="Alta" style="rhombus;whiteSpace=wrap;html=1;" vertex="1" parent="WIyWlLk6GJQsqaUBKTNV-1">
          <mxGeometry x="744" y="460" width="80" height="80" as="geometry" />
        </mxCell>
        <mxCell id="TD4gpTgBBpbdvJ58NCWK-28" value="Informativa" style="rhombus;whiteSpace=wrap;html=1;" vertex="1" parent="WIyWlLk6GJQsqaUBKTNV-1">
          <mxGeometry x="744" y="220" width="80" height="80" as="geometry" />
        </mxCell>
        <mxCell id="TD4gpTgBBpbdvJ58NCWK-34" value="Promedio" style="rhombus;whiteSpace=wrap;html=1;" vertex="1" parent="WIyWlLk6GJQsqaUBKTNV-1">
          <mxGeometry x="4" y="220" width="80" height="80" as="geometry" />
        </mxCell>
        <mxCell id="TD4gpTgBBpbdvJ58NCWK-35" value="Alta" style="rhombus;whiteSpace=wrap;html=1;" vertex="1" parent="WIyWlLk6GJQsqaUBKTNV-1">
          <mxGeometry x="4" y="300" width="80" height="80" as="geometry" />
        </mxCell>
        <mxCell id="TD4gpTgBBpbdvJ58NCWK-36" value="Critica" style="rhombus;whiteSpace=wrap;html=1;" vertex="1" parent="WIyWlLk6GJQsqaUBKTNV-1">
          <mxGeometry x="4" y="380" width="80" height="80" as="geometry" />
        </mxCell>
        <mxCell id="TD4gpTgBBpbdvJ58NCWK-48" style="edgeStyle=orthogonalEdgeStyle;rounded=0;orthogonalLoop=1;jettySize=auto;html=1;entryX=0;entryY=0.5;entryDx=0;entryDy=0;" edge="1" parent="WIyWlLk6GJQsqaUBKTNV-1" source="TD4gpTgBBpbdvJ58NCWK-46" target="TD4gpTgBBpbdvJ58NCWK-26">
          <mxGeometry relative="1" as="geometry" />
        </mxCell>
        <mxCell id="TD4gpTgBBpbdvJ58NCWK-58" style="edgeStyle=orthogonalEdgeStyle;rounded=0;orthogonalLoop=1;jettySize=auto;html=1;entryX=0;entryY=0.5;entryDx=0;entryDy=0;" edge="1" parent="WIyWlLk6GJQsqaUBKTNV-1" source="TD4gpTgBBpbdvJ58NCWK-46" target="TD4gpTgBBpbdvJ58NCWK-22">
          <mxGeometry relative="1" as="geometry" />
        </mxCell>
        <mxCell id="TD4gpTgBBpbdvJ58NCWK-59" style="edgeStyle=orthogonalEdgeStyle;rounded=0;orthogonalLoop=1;jettySize=auto;html=1;entryX=0;entryY=0.5;entryDx=0;entryDy=0;" edge="1" parent="WIyWlLk6GJQsqaUBKTNV-1" source="TD4gpTgBBpbdvJ58NCWK-46" target="TD4gpTgBBpbdvJ58NCWK-28">
          <mxGeometry relative="1" as="geometry" />
        </mxCell>
        <mxCell id="TD4gpTgBBpbdvJ58NCWK-60" style="edgeStyle=orthogonalEdgeStyle;rounded=0;orthogonalLoop=1;jettySize=auto;html=1;entryX=0;entryY=0.5;entryDx=0;entryDy=0;" edge="1" parent="WIyWlLk6GJQsqaUBKTNV-1" source="TD4gpTgBBpbdvJ58NCWK-46" target="TD4gpTgBBpbdvJ58NCWK-24">
          <mxGeometry relative="1" as="geometry" />
        </mxCell>
        <mxCell id="TD4gpTgBBpbdvJ58NCWK-61" style="edgeStyle=orthogonalEdgeStyle;rounded=0;orthogonalLoop=1;jettySize=auto;html=1;entryX=0;entryY=0.5;entryDx=0;entryDy=0;" edge="1" parent="WIyWlLk6GJQsqaUBKTNV-1" source="TD4gpTgBBpbdvJ58NCWK-46" target="TD4gpTgBBpbdvJ58NCWK-27">
          <mxGeometry relative="1" as="geometry" />
        </mxCell>
        <mxCell id="TD4gpTgBBpbdvJ58NCWK-62" style="edgeStyle=orthogonalEdgeStyle;rounded=0;orthogonalLoop=1;jettySize=auto;html=1;entryX=0;entryY=0.5;entryDx=0;entryDy=0;" edge="1" parent="WIyWlLk6GJQsqaUBKTNV-1" source="TD4gpTgBBpbdvJ58NCWK-46" target="TD4gpTgBBpbdvJ58NCWK-25">
          <mxGeometry relative="1" as="geometry" />
        </mxCell>
        <mxCell id="TD4gpTgBBpbdvJ58NCWK-46" value="Tipus&lt;div&gt;Notificacio&lt;/div&gt;" style="ellipse;whiteSpace=wrap;html=1;" vertex="1" parent="WIyWlLk6GJQsqaUBKTNV-1">
          <mxGeometry x="604" y="305" width="100" height="70" as="geometry" />
        </mxCell>
        <mxCell id="TD4gpTgBBpbdvJ58NCWK-69" value="" style="edgeStyle=orthogonalEdgeStyle;rounded=0;orthogonalLoop=1;jettySize=auto;html=1;" edge="1" parent="WIyWlLk6GJQsqaUBKTNV-1" source="TD4gpTgBBpbdvJ58NCWK-63" target="TD4gpTgBBpbdvJ58NCWK-6">
          <mxGeometry relative="1" as="geometry" />
        </mxCell>
        <mxCell id="TD4gpTgBBpbdvJ58NCWK-74" style="edgeStyle=orthogonalEdgeStyle;rounded=0;orthogonalLoop=1;jettySize=auto;html=1;entryX=0.5;entryY=1;entryDx=0;entryDy=0;" edge="1" parent="WIyWlLk6GJQsqaUBKTNV-1" source="TD4gpTgBBpbdvJ58NCWK-63" target="TD4gpTgBBpbdvJ58NCWK-71">
          <mxGeometry relative="1" as="geometry" />
        </mxCell>
        <mxCell id="TD4gpTgBBpbdvJ58NCWK-75" style="edgeStyle=orthogonalEdgeStyle;rounded=0;orthogonalLoop=1;jettySize=auto;html=1;" edge="1" parent="WIyWlLk6GJQsqaUBKTNV-1" source="TD4gpTgBBpbdvJ58NCWK-63" target="TD4gpTgBBpbdvJ58NCWK-72">
          <mxGeometry relative="1" as="geometry" />
        </mxCell>
        <mxCell id="TD4gpTgBBpbdvJ58NCWK-63" value="On van?" style="shape=trapezoid;perimeter=trapezoidPerimeter;whiteSpace=wrap;html=1;fixedSize=1;" vertex="1" parent="WIyWlLk6GJQsqaUBKTNV-1">
          <mxGeometry x="374" y="260" width="100" height="50" as="geometry" />
        </mxCell>
        <mxCell id="TD4gpTgBBpbdvJ58NCWK-80" value="" style="edgeStyle=orthogonalEdgeStyle;rounded=0;orthogonalLoop=1;jettySize=auto;html=1;" edge="1" parent="WIyWlLk6GJQsqaUBKTNV-1" source="TD4gpTgBBpbdvJ58NCWK-71" target="TD4gpTgBBpbdvJ58NCWK-79">
          <mxGeometry relative="1" as="geometry" />
        </mxCell>
        <mxCell id="TD4gpTgBBpbdvJ58NCWK-71" value="Gmail Server" style="rounded=1;whiteSpace=wrap;html=1;" vertex="1" parent="WIyWlLk6GJQsqaUBKTNV-1">
          <mxGeometry x="254" y="140" width="120" height="60" as="geometry" />
        </mxCell>
        <mxCell id="TD4gpTgBBpbdvJ58NCWK-77" value="" style="edgeStyle=orthogonalEdgeStyle;rounded=0;orthogonalLoop=1;jettySize=auto;html=1;" edge="1" parent="WIyWlLk6GJQsqaUBKTNV-1" source="TD4gpTgBBpbdvJ58NCWK-72" target="TD4gpTgBBpbdvJ58NCWK-76">
          <mxGeometry relative="1" as="geometry" />
        </mxCell>
        <mxCell id="TD4gpTgBBpbdvJ58NCWK-72" value="Telegram&amp;nbsp;&lt;div&gt;Webhook Bot&lt;/div&gt;" style="rounded=1;whiteSpace=wrap;html=1;" vertex="1" parent="WIyWlLk6GJQsqaUBKTNV-1">
          <mxGeometry x="474" y="140" width="120" height="60" as="geometry" />
        </mxCell>
        <mxCell id="TD4gpTgBBpbdvJ58NCWK-76" value="Chat Telegram" style="ellipse;whiteSpace=wrap;html=1;rounded=1;" vertex="1" parent="WIyWlLk6GJQsqaUBKTNV-1">
          <mxGeometry x="494" y="20" width="80" height="80" as="geometry" />
        </mxCell>
        <mxCell id="TD4gpTgBBpbdvJ58NCWK-82" value="" style="edgeStyle=orthogonalEdgeStyle;rounded=0;orthogonalLoop=1;jettySize=auto;html=1;" edge="1" parent="WIyWlLk6GJQsqaUBKTNV-1" source="TD4gpTgBBpbdvJ58NCWK-79" target="TD4gpTgBBpbdvJ58NCWK-81">
          <mxGeometry relative="1" as="geometry" />
        </mxCell>
        <mxCell id="TD4gpTgBBpbdvJ58NCWK-79" value="Correu Intermediari" style="ellipse;whiteSpace=wrap;html=1;rounded=1;" vertex="1" parent="WIyWlLk6GJQsqaUBKTNV-1">
          <mxGeometry x="124" y="130" width="80" height="80" as="geometry" />
        </mxCell>
        <mxCell id="TD4gpTgBBpbdvJ58NCWK-81" value="Correu Personal" style="rhombus;whiteSpace=wrap;html=1;rounded=1;" vertex="1" parent="WIyWlLk6GJQsqaUBKTNV-1">
          <mxGeometry x="124" y="30" width="80" height="80" as="geometry" />
        </mxCell>
        <mxCell id="TD4gpTgBBpbdvJ58NCWK-92" style="edgeStyle=orthogonalEdgeStyle;rounded=0;orthogonalLoop=1;jettySize=auto;html=1;entryX=0.5;entryY=0;entryDx=0;entryDy=0;" edge="1" parent="WIyWlLk6GJQsqaUBKTNV-1" source="TD4gpTgBBpbdvJ58NCWK-87" target="TD4gpTgBBpbdvJ58NCWK-90">
          <mxGeometry relative="1" as="geometry" />
        </mxCell>
        <mxCell id="TD4gpTgBBpbdvJ58NCWK-98" style="edgeStyle=orthogonalEdgeStyle;rounded=0;orthogonalLoop=1;jettySize=auto;html=1;entryX=0.5;entryY=0;entryDx=0;entryDy=0;" edge="1" parent="WIyWlLk6GJQsqaUBKTNV-1" source="TD4gpTgBBpbdvJ58NCWK-87" target="TD4gpTgBBpbdvJ58NCWK-91">
          <mxGeometry relative="1" as="geometry" />
        </mxCell>
        <mxCell id="TD4gpTgBBpbdvJ58NCWK-104" style="edgeStyle=orthogonalEdgeStyle;rounded=0;orthogonalLoop=1;jettySize=auto;html=1;entryX=0.5;entryY=0;entryDx=0;entryDy=0;" edge="1" parent="WIyWlLk6GJQsqaUBKTNV-1" source="TD4gpTgBBpbdvJ58NCWK-87" target="TD4gpTgBBpbdvJ58NCWK-89">
          <mxGeometry relative="1" as="geometry" />
        </mxCell>
        <mxCell id="TD4gpTgBBpbdvJ58NCWK-87" value="Proxmox Virtual" style="rounded=1;whiteSpace=wrap;html=1;" vertex="1" parent="WIyWlLk6GJQsqaUBKTNV-1">
          <mxGeometry x="364" y="760" width="120" height="60" as="geometry" />
        </mxCell>
        <mxCell id="TD4gpTgBBpbdvJ58NCWK-103" style="edgeStyle=orthogonalEdgeStyle;rounded=0;orthogonalLoop=1;jettySize=auto;html=1;entryX=0;entryY=0.5;entryDx=0;entryDy=0;" edge="1" parent="WIyWlLk6GJQsqaUBKTNV-1" source="TD4gpTgBBpbdvJ58NCWK-89" target="TD4gpTgBBpbdvJ58NCWK-99">
          <mxGeometry relative="1" as="geometry" />
        </mxCell>
        <mxCell id="TD4gpTgBBpbdvJ58NCWK-89" value="Node1" style="ellipse;whiteSpace=wrap;html=1;aspect=fixed;" vertex="1" parent="WIyWlLk6GJQsqaUBKTNV-1">
          <mxGeometry x="260" y="840" width="80" height="80" as="geometry" />
        </mxCell>
        <mxCell id="TD4gpTgBBpbdvJ58NCWK-100" style="edgeStyle=orthogonalEdgeStyle;rounded=0;orthogonalLoop=1;jettySize=auto;html=1;entryX=0.5;entryY=0;entryDx=0;entryDy=0;" edge="1" parent="WIyWlLk6GJQsqaUBKTNV-1" source="TD4gpTgBBpbdvJ58NCWK-90" target="TD4gpTgBBpbdvJ58NCWK-99">
          <mxGeometry relative="1" as="geometry" />
        </mxCell>
        <mxCell id="TD4gpTgBBpbdvJ58NCWK-90" value="Node2" style="ellipse;whiteSpace=wrap;html=1;aspect=fixed;" vertex="1" parent="WIyWlLk6GJQsqaUBKTNV-1">
          <mxGeometry x="384" y="840" width="80" height="80" as="geometry" />
        </mxCell>
        <mxCell id="TD4gpTgBBpbdvJ58NCWK-105" style="edgeStyle=orthogonalEdgeStyle;rounded=0;orthogonalLoop=1;jettySize=auto;html=1;entryX=1;entryY=0.5;entryDx=0;entryDy=0;" edge="1" parent="WIyWlLk6GJQsqaUBKTNV-1" source="TD4gpTgBBpbdvJ58NCWK-91" target="TD4gpTgBBpbdvJ58NCWK-99">
          <mxGeometry relative="1" as="geometry" />
        </mxCell>
        <mxCell id="TD4gpTgBBpbdvJ58NCWK-91" value="Node3" style="ellipse;whiteSpace=wrap;html=1;aspect=fixed;" vertex="1" parent="WIyWlLk6GJQsqaUBKTNV-1">
          <mxGeometry x="514" y="840" width="80" height="80" as="geometry" />
        </mxCell>
        <mxCell id="TD4gpTgBBpbdvJ58NCWK-107" style="edgeStyle=orthogonalEdgeStyle;rounded=0;orthogonalLoop=1;jettySize=auto;html=1;" edge="1" parent="WIyWlLk6GJQsqaUBKTNV-1" source="TD4gpTgBBpbdvJ58NCWK-99" target="TD4gpTgBBpbdvJ58NCWK-106">
          <mxGeometry relative="1" as="geometry" />
        </mxCell>
        <mxCell id="TD4gpTgBBpbdvJ58NCWK-99" value="NetData" style="whiteSpace=wrap;html=1;aspect=fixed;" vertex="1" parent="WIyWlLk6GJQsqaUBKTNV-1">
          <mxGeometry x="384" y="940" width="80" height="80" as="geometry" />
        </mxCell>
        <mxCell id="TD4gpTgBBpbdvJ58NCWK-109" style="edgeStyle=orthogonalEdgeStyle;rounded=0;orthogonalLoop=1;jettySize=auto;html=1;" edge="1" parent="WIyWlLk6GJQsqaUBKTNV-1" source="TD4gpTgBBpbdvJ58NCWK-106" target="TD4gpTgBBpbdvJ58NCWK-108">
          <mxGeometry relative="1" as="geometry" />
        </mxCell>
        <mxCell id="TD4gpTgBBpbdvJ58NCWK-111" style="edgeStyle=orthogonalEdgeStyle;rounded=0;orthogonalLoop=1;jettySize=auto;html=1;" edge="1" parent="WIyWlLk6GJQsqaUBKTNV-1" source="TD4gpTgBBpbdvJ58NCWK-106" target="TD4gpTgBBpbdvJ58NCWK-110">
          <mxGeometry relative="1" as="geometry" />
        </mxCell>
        <mxCell id="TD4gpTgBBpbdvJ58NCWK-106" value="Notificacions" style="whiteSpace=wrap;html=1;aspect=fixed;" vertex="1" parent="WIyWlLk6GJQsqaUBKTNV-1">
          <mxGeometry x="384" y="1040" width="80" height="80" as="geometry" />
        </mxCell>
        <mxCell id="TD4gpTgBBpbdvJ58NCWK-114" style="edgeStyle=orthogonalEdgeStyle;rounded=0;orthogonalLoop=1;jettySize=auto;html=1;entryX=1;entryY=0.5;entryDx=0;entryDy=0;" edge="1" parent="WIyWlLk6GJQsqaUBKTNV-1" source="TD4gpTgBBpbdvJ58NCWK-108" target="TD4gpTgBBpbdvJ58NCWK-112">
          <mxGeometry relative="1" as="geometry" />
        </mxCell>
        <mxCell id="TD4gpTgBBpbdvJ58NCWK-108" value="On van?" style="shape=trapezoid;perimeter=trapezoidPerimeter;whiteSpace=wrap;html=1;fixedSize=1;" vertex="1" parent="WIyWlLk6GJQsqaUBKTNV-1">
          <mxGeometry x="224" y="1055" width="100" height="50" as="geometry" />
        </mxCell>
        <mxCell id="TD4gpTgBBpbdvJ58NCWK-124" style="edgeStyle=orthogonalEdgeStyle;rounded=0;orthogonalLoop=1;jettySize=auto;html=1;" edge="1" parent="WIyWlLk6GJQsqaUBKTNV-1" source="TD4gpTgBBpbdvJ58NCWK-110" target="TD4gpTgBBpbdvJ58NCWK-120">
          <mxGeometry relative="1" as="geometry" />
        </mxCell>
        <mxCell id="TD4gpTgBBpbdvJ58NCWK-110" value="Tipus&lt;div&gt;Notificacio&lt;/div&gt;" style="ellipse;whiteSpace=wrap;html=1;" vertex="1" parent="WIyWlLk6GJQsqaUBKTNV-1">
          <mxGeometry x="530" y="1010" width="100" height="70" as="geometry" />
        </mxCell>
        <mxCell id="TD4gpTgBBpbdvJ58NCWK-116" value="" style="edgeStyle=orthogonalEdgeStyle;rounded=0;orthogonalLoop=1;jettySize=auto;html=1;" edge="1" parent="WIyWlLk6GJQsqaUBKTNV-1" source="TD4gpTgBBpbdvJ58NCWK-112" target="TD4gpTgBBpbdvJ58NCWK-115">
          <mxGeometry relative="1" as="geometry" />
        </mxCell>
        <mxCell id="TD4gpTgBBpbdvJ58NCWK-112" value="Discord&lt;div&gt;Webhook&lt;/div&gt;" style="rhombus;whiteSpace=wrap;html=1;" vertex="1" parent="WIyWlLk6GJQsqaUBKTNV-1">
          <mxGeometry x="100" y="1040" width="80" height="80" as="geometry" />
        </mxCell>
        <mxCell id="TD4gpTgBBpbdvJ58NCWK-119" value="" style="edgeStyle=orthogonalEdgeStyle;rounded=0;orthogonalLoop=1;jettySize=auto;html=1;" edge="1" parent="WIyWlLk6GJQsqaUBKTNV-1" source="TD4gpTgBBpbdvJ58NCWK-115" target="TD4gpTgBBpbdvJ58NCWK-118">
          <mxGeometry relative="1" as="geometry" />
        </mxCell>
        <mxCell id="TD4gpTgBBpbdvJ58NCWK-115" value="Discord Server" style="shape=hexagon;perimeter=hexagonPerimeter2;whiteSpace=wrap;html=1;fixedSize=1;" vertex="1" parent="WIyWlLk6GJQsqaUBKTNV-1">
          <mxGeometry x="95" y="940" width="90" height="60" as="geometry" />
        </mxCell>
        <mxCell id="TD4gpTgBBpbdvJ58NCWK-118" value="Chat General" style="whiteSpace=wrap;html=1;" vertex="1" parent="WIyWlLk6GJQsqaUBKTNV-1">
          <mxGeometry x="90" y="860" width="100" height="40" as="geometry" />
        </mxCell>
        <mxCell id="TD4gpTgBBpbdvJ58NCWK-120" value="&amp;nbsp; &amp;nbsp; Advertencia" style="shape=step;perimeter=stepPerimeter;whiteSpace=wrap;html=1;fixedSize=1;" vertex="1" parent="WIyWlLk6GJQsqaUBKTNV-1">
          <mxGeometry x="670" y="960" width="100" height="60" as="geometry" />
        </mxCell>
        <mxCell id="TD4gpTgBBpbdvJ58NCWK-121" value="Critical" style="shape=step;perimeter=stepPerimeter;whiteSpace=wrap;html=1;fixedSize=1;" vertex="1" parent="WIyWlLk6GJQsqaUBKTNV-1">
          <mxGeometry x="670" y="1070" width="100" height="60" as="geometry" />
        </mxCell>
        <mxCell id="TD4gpTgBBpbdvJ58NCWK-123" style="edgeStyle=orthogonalEdgeStyle;rounded=0;orthogonalLoop=1;jettySize=auto;html=1;entryX=0.134;entryY=0.453;entryDx=0;entryDy=0;entryPerimeter=0;" edge="1" parent="WIyWlLk6GJQsqaUBKTNV-1" source="TD4gpTgBBpbdvJ58NCWK-110" target="TD4gpTgBBpbdvJ58NCWK-121">
          <mxGeometry relative="1" as="geometry" />
        </mxCell>
      </root>
    </mxGraphModel>
  </diagram>
</mxfile>
